<?xml version="1.0" encoding="UTF-8"?>
<svg width="980px" height="400px" viewBox="0 0 980 400" version="1.1" xmlns="http://www.w3.org/2000/svg" xmlns:xlink="http://www.w3.org/1999/xlink">
    <!-- Generator: Sketch 48 (47235) - http://www.bohemiancoding.com/sketch -->
    <title>banner</title>
    <desc>Created with Sketch.</desc>
    <defs></defs>
    <g id="github-banner" stroke="none" stroke-width="1" fill="none" fill-rule="evenodd" transform="translate(-16.000000, -21.000000)">
        <path d="M506.299363,78.0414519 L382.5,149.517047 L382.5,292.468239 L506.299363,363.943834 L630.098726,292.468239 L630.098726,149.517047 L506.299363,78.0414519 Z" id="Polygon" stroke="#343334" stroke-width="7"></path>
        <path d="M536.109392,184.248765 L551.003004,170.346213 C553.707661,168.35619 557.572032,168.573568 560.003362,170.852499 C562.434692,173.13143 562.666607,176.753577 560.543505,179.288703 L545.711247,193.191254 C543.059768,195.680505 538.757437,195.683724 536.101723,193.198443 C533.446008,190.713162 533.442575,186.680508 536.094054,184.191257 L536.109392,184.248765 Z M535.664578,152.676889 C534.012817,151.895548 532.090829,151.785682 530.350012,152.373094 C528.609195,152.960506 527.20294,154.193437 526.461522,155.78232 L517.90268,174.299886 C516.505082,177.338794 517.842459,180.873801 520.970365,182.40851 C523.569789,183.660544 526.733607,183.20208 528.808301,181.272728 C529.42019,180.704164 529.909687,180.030585 530.250113,179.288703 L538.732263,160.785513 C540.129861,157.746606 538.792484,154.211598 535.664578,152.676889 Z M570.743558,190.790297 L551.003004,198.740774 C547.775919,200.2235 546.359939,203.820358 547.786041,206.912465 C549.212144,210.004573 552.977602,211.501906 556.340776,210.314253 L576.08133,202.291891 C576.86557,201.974566 577.578591,201.520883 578.182695,200.95483 C580.341725,198.792513 580.606366,195.513924 578.819003,193.071744 C577.03164,190.629564 573.673048,189.680706 570.743558,190.790297 Z M566.540829,238.090602 C568.324534,239.762502 569.02115,242.199349 568.368269,244.483207 C567.715388,246.767064 565.812197,248.55096 563.375611,249.162918 C560.939025,249.774875 558.339219,249.121924 556.555514,247.450024 L552.414139,243.568236 L531.875986,252.122547 C539.173858,261.590387 537.472171,274.727325 527.969148,282.283146 C518.466126,289.838967 504.360802,289.270128 495.58527,280.977171 L485.431232,271.459602 L466.380907,279.395702 C468.507718,282.01001 468.245599,285.695349 465.76737,288.021898 C463.007646,290.601096 458.541778,290.601096 455.782054,288.021898 L434.96781,268.526696 C432.439199,266.064171 432.334996,262.199489 434.727671,259.620386 C437.120346,257.041282 441.217996,256.601362 444.170866,258.606571 L482.4249,177.966019 L478.283525,174.084231 C476.269094,172.192945 475.667051,169.351128 476.757704,166.881907 C477.848357,164.412685 480.417323,162.801416 483.268514,162.798292 C485.140312,162.793969 486.935857,163.49306 488.253502,164.739186 L566.540829,238.090602 Z M519.589907,258.477178 L518.669601,257.614558 L498.990401,265.809444 L505.371186,271.790273 C507.911116,274.170997 511.613144,275.100775 515.082753,274.22937 C518.552362,273.357964 521.262435,270.817763 522.192114,267.565634 C523.121793,264.313505 522.129837,260.843524 519.589907,258.462801 L519.589907,258.477178 Z" id="Shape" fill="#000000" fill-rule="nonzero"></path>
    </g>
</svg>