<?xml version="1.0" encoding="UTF-8"?>
<svg width="980px" height="605px" viewBox="0 0 980 605" version="1.1" xmlns="http://www.w3.org/2000/svg" xmlns:xlink="http://www.w3.org/1999/xlink">
    <!-- Generator: Sketch 49 (51002) - http://www.bohemiancoding.com/sketch -->
    <title>banner</title>
    <desc>Created with Sketch.</desc>
    <defs></defs>
    <g id="Page-1" stroke="none" stroke-width="1" fill="none" fill-rule="evenodd">
        <g id="github-banner" transform="translate(-16.000000, -218.000000)">
            <g id="Group" transform="translate(378.000000, 374.000000)">
                <path d="M128.5,4.03991332 L4.5,75.5222663 L4.5,218.477734 L128.5,289.960087 L252.5,218.477734 L252.5,75.5222663 L128.5,4.03991332 Z" id="Polygon" stroke="#343334" stroke-width="7"></path>
                <path d="M158.109392,110.258981 L173.003004,96.3520251 C175.707661,94.3613719 179.572032,94.5788183 182.003362,96.8584714 C184.434692,99.1381245 184.666607,102.761418 182.543505,105.297347 L167.711247,119.204303 C165.059768,121.694343 160.757437,121.697562 158.101723,119.211494 C155.446008,116.725426 155.442575,112.691494 158.094054,110.201455 L158.109392,110.258981 Z M157.664578,78.6771037 C156.012817,77.895515 154.090829,77.785614 152.350012,78.3732121 C150.609195,78.9608102 149.20294,80.1941316 148.461522,81.7835178 L139.90268,100.306951 C138.505082,103.346821 139.842459,106.882948 142.970365,108.418143 C145.569789,109.670574 148.733607,109.211965 150.808301,107.282001 C151.42019,106.713257 151.909687,106.039465 152.250113,105.297347 L160.732263,86.7882962 C162.129861,83.7484261 160.792484,80.212299 157.664578,78.6771037 Z M192.743558,116.802585 L173.003004,124.755581 C169.775919,126.238776 168.359939,129.836774 169.786041,132.929861 C171.212144,136.022948 174.977602,137.520756 178.340776,136.332726 L198.08133,128.307823 C198.86557,127.990397 199.578591,127.536571 200.182695,126.970339 C202.341725,124.807337 202.606366,121.527709 200.819003,119.084755 C199.03164,116.641801 195.673048,115.692643 192.743558,116.802585 Z M188.540829,164.117875 C190.324534,165.790304 191.02115,168.227923 190.368269,170.512504 C189.715388,172.797085 187.812197,174.581546 185.375611,175.193698 C182.939025,175.80585 180.339219,175.152692 178.555514,173.480262 L174.414139,169.597244 L153.875986,178.154265 C161.173858,187.625105 159.472171,200.766204 149.969148,208.324419 C140.466126,215.882633 126.360802,215.313614 117.58527,207.01803 L107.431232,197.497446 L88.3809067,205.43606 C90.5077181,208.051196 90.2455988,211.737703 87.7673697,214.064988 C85.0076461,216.645004 80.5417778,216.645004 77.7820542,214.064988 L56.96781,194.56361 C54.439199,192.100305 54.3349964,188.234399 56.7276711,185.654479 C59.1203457,183.074559 63.2179956,182.634498 66.1708656,184.640343 L104.4249,103.974245 L100.283525,100.091227 C98.2690937,98.1993417 97.6670513,95.3566246 98.757704,92.8866211 C99.8483567,90.4166175 102.417323,88.8048377 105.268514,88.8017128 C107.140312,88.7973882 108.935857,89.4967012 110.253502,90.7432217 L188.540829,164.117875 Z M141.589907,184.510909 L140.669601,183.648016 L120.990401,191.845498 L127.371186,197.828221 C129.911116,200.209699 133.613144,201.139772 137.082753,200.268091 C140.552362,199.39641 143.262435,196.855403 144.192114,193.602244 C145.121793,190.349085 144.129837,186.878005 141.589907,184.496527 L141.589907,184.510909 Z" id="Shape" fill="#343334" fill-rule="nonzero"></path>
            </g>
        </g>
    </g>
</svg>